<svg width="11" height="5" viewBox="0 0 11 5" fill="none" xmlns="http://www.w3.org/2000/svg">
<path d="M4.68182 1.38945C3.72326 0.978146 3.18597 0.9597 2.22727 1.38945C1.40287 1.79229 1.1162 2.06789 1 2.66933C1.19956 3.32057 1.43831 3.56036 2.22727 3.62923C3.08099 4.1306 3.71563 4.11653 5.09091 3.62923C5.64801 3.9283 6.06709 3.85985 6.86364 3.62923C7.45468 3.78085 7.83487 3.74412 8.63636 3.30926C9.37042 2.99301 9.72727 3.25 10 2.18937C9.45455 1.5 9.04545 1 8.09091 1.38945C7.50509 0.964935 7.17673 0.853374 6.59091 1.38945C5.84544 0.901083 5.42731 0.840173 4.68182 1.38945Z" fill="#CFA04D" stroke="#666666" stroke-width="0.5"/>
</svg>
