<svg width="10" height="6" viewBox="0 0 10 6" fill="none" xmlns="http://www.w3.org/2000/svg">
<path d="M2.63848 2.33333C2.62052 1.9718 2.38535 1.72727 3.14477 1.60606C3.9042 1.48485 3.09546 1.17832 4.15732 1C4.37402 1.45807 5.42305 1.60606 5.42305 1.60606C5.42305 1.60606 6.18244 2.09091 6.18245 2.21212C6.18246 2.33333 5.67618 3.06061 5.92933 3.18182C6.18248 3.30303 7.75984 3.20523 8.71386 3.90909C9.0491 4.2474 9.22465 4.65277 8.46074 4.87879L2.13221 5C1.55583 4.76126 0.211598 4.50729 1.62592 4.0303C1.77153 3.45805 2.08349 3.2385 3.39791 3.18182C4.37573 2.65651 2.65645 2.69487 2.63848 2.33333Z" fill="#CFA04D" stroke="#9B7F7F" stroke-width="0.5"/>
</svg>
